<svg id="Layer_1" data-name="Layer 1" xmlns="http://www.w3.org/2000/svg" viewBox="0 0 32 32"><defs><style>.cls-1{fill:#28547d;}.cls-2{fill:#fff;}</style></defs><title>NEDA LABS 33x32</title><circle class="cls-1" cx="16" cy="16" r="15.88"/><path class="cls-2" d="M12.55,4.58h0a1.09,1.09,0,0,1-.71,1,11.22,11.22,0,0,0,0,20.84,1.1,1.1,0,0,1,.71,1h0a1.07,1.07,0,0,1-1.45,1,13.37,13.37,0,0,1,0-24.86A1.07,1.07,0,0,1,12.55,4.58Z"/><path class="cls-2" d="M29.35,16a13.36,13.36,0,0,1-8.46,12.43,1.07,1.07,0,0,1-1.44-1h0a1.11,1.11,0,0,1,.7-1,11.21,11.21,0,0,0,0-20.84,1.09,1.09,0,0,1-.71-1h0a1.07,1.07,0,0,1,1.44-1A13.36,13.36,0,0,1,29.35,16Z"/><path class="cls-2" d="M15.94,20.12v2.35a.46.46,0,0,1-.46.47H11.27a.45.45,0,0,1-.33-.14l-2.4-2.4a.44.44,0,0,1-.13-.33V16.72a.46.46,0,0,1,.46-.46H12.1a.45.45,0,0,1,.33.14l3.38,3.4A.44.44,0,0,1,15.94,20.12Z"/><path class="cls-2" d="M23.59,11.93v3.35a.46.46,0,0,1-.46.46H19.89a.43.43,0,0,1-.32-.14l-3.38-3.4a.44.44,0,0,1-.13-.32V9.53a.47.47,0,0,1,.47-.47h4.21a.47.47,0,0,1,.33.14l2.4,2.4A.44.44,0,0,1,23.59,11.93Z"/><path class="cls-2" d="M19.43,17.23h3.7a.45.45,0,0,1,.46.46v4.78a.46.46,0,0,1-.46.47h-2.2a.44.44,0,0,1-.33-.14l-7.7-7.89a.47.47,0,0,0-.33-.14H8.87a.45.45,0,0,1-.46-.46V9.53a.46.46,0,0,1,.46-.47h2.2a.45.45,0,0,1,.33.14l7.7,7.89A.45.45,0,0,0,19.43,17.23Z"/></svg>